<svg xmlns="http://www.w3.org/2000/svg" width="64" height="25" viewBox="0 0 64 25">
    <g fill="none" fill-rule="evenodd">
        <path fill="#FEEE00" d="M64 12.5C64 19.404 58.404 25 51.5 25h-39C5.596 25 0 19.404 0 12.5S5.596 0 12.5 0h39C58.404 0 64 5.596 64 12.5z"/>
        <g fill="#404553">
            <path fill-rule="nonzero" d="M10 12.627C10 16.213 12.904 19 16.28 19c3.535 0 6.4-2.993 6.4-6.648 0-2.138-.986-4.013-2.445-5.269l-1.064 1.93a4.53 4.53 0 0 1 1.485 3.367c0 2.482-1.958 4.523-4.375 4.523-2.405 0-4.363-2.041-4.363-4.593 0-.303.026-.606.079-.896L10 12.627zm8.453-6.35A5.672 5.672 0 0 0 16.708 6a6.404 6.404 0 0 0-1.064.092l-1.418 2.075c.518-.254 1.187-.392 1.91-.392.422 0 .804.046 1.199.138l1.118-1.637v.001z"/>
            <path d="M34.048 16.642v-5.265c0-1.45-.767-2.377-2.379-2.377-1.174 0-2.077.587-2.544 1.142v-.957h-1.912v7.457h1.912v-5.033c.331-.432.903-.865 1.656-.865.813 0 1.34.356 1.34 1.39v4.508h1.927zm4.63.185c-2.395 0-3.84-1.806-3.84-3.921 0-2.115 1.445-3.906 3.84-3.906 2.408 0 3.854 1.79 3.854 3.906 0 2.115-1.446 3.92-3.855 3.92zm0-1.745c1.204 0 1.866-1.003 1.866-2.176 0-1.158-.662-2.162-1.867-2.162-1.19 0-1.852 1.004-1.852 2.162 0 1.173.663 2.176 1.852 2.176zm13.09 1.56H49.72l-1.536-5.08-1.536 5.08h-2.047l-2.214-7.457h1.988l1.355 5.017 1.596-5.017h1.701l1.596 5.017 1.355-5.017h2.003l-2.213 7.457z"/>
        </g>
    </g>
</svg>
